# xmcd CD database file
#
# Track frame offsets:
#	183
#	14545
#	27108
#	38065
#	72890
#	85030
#	98260
#	109738
#	124973
#	141550
#	164923
#	185213
#	205060
#	218713
#	243548
#	261473
#	276965
#
# Disc length: 3995 seconds
#
# Revision: 0
# Processed by: cddbd v1.4PL0 Copyright (c) Steve Scherf et al.
# Submitted via: CDex 1.40Release
#
DISCID=010f9911
DTITLE=Blues 'N' Trouble Feat. Robert Cray and Ian Stewart - No Minor Keys
DYEAR=1985
DGENRE=Blues
TTITLE0=Free To Ride
TTITLE1=You Can Run
TTITLE2=Madison Blues
TTITLE3=Double Trouble
TTITLE4=Beautiful City
TTITLE5=Fine, Fine, Fine
TTITLE6=All My Love In Vain
TTITLE7=Clock On The Wall
TTITLE8=Honey Pot
TTITLE9=Tight 'N Juicy
TTITLE10=Natural Born Lover
TTITLE11=C. T.
TTITLE12=Downtown Saturday Night
TTITLE13=Blues 'N' Trouble
TTITLE14=Tearstains On My Pillow
TTITLE15=Mystery Train
TTITLE16=Wake Up Mama
EXTD=YEAR: 1985 ID3G: 0
EXTT0=
EXTT1=
EXTT2=
EXTT3=
EXTT4=
EXTT5=
EXTT6=
EXTT7=
EXTT8=
EXTT9=
EXTT10=
EXTT11=
EXTT12=
EXTT13=
EXTT14=
EXTT15=
EXTT16=
PLAYORDER=
